<?xml version="1.0" standalone="no"?>
<!DOCTYPE svg PUBLIC "-//W3C//DTD SVG 20010904//EN"
 "http://www.w3.org/TR/2001/REC-SVG-20010904/DTD/svg10.dtd">
<svg version="1.0" xmlns="http://www.w3.org/2000/svg"
 width="260.000000pt" height="260.000000pt" viewBox="0 0 260.000000 260.000000"
 preserveAspectRatio="xMidYMid meet">
<metadata>
Created by potrace 1.11, written by Peter Selinger 2001-2013
</metadata>
<g transform="translate(0.000000,260.000000) scale(0.100000,-0.100000)"
fill="#000000" stroke="none">
<path d="M0 1300 l0 -1300 1300 0 1300 0 0 1300 0 1300 -1300 0 -1300 0 0
-1300z m1497 714 c71 -14 243 -71 243 -80 0 -7 -84 -209 -90 -216 -3 -5 -44 5
-91 22 -184 64 -309 62 -368 -6 -26 -29 -31 -43 -31 -84 0 -73 33 -105 193
-186 237 -120 314 -181 364 -289 24 -52 27 -72 27 -155 0 -83 -3 -103 -28
-157 -31 -69 -106 -147 -172 -181 -90 -46 -151 -57 -309 -56 -153 1 -236 15
-337 58 l-38 16 0 135 c0 74 1 135 3 135 1 0 41 -15 88 -34 127 -50 213 -69
309 -70 101 0 150 18 180 66 25 41 26 104 2 141 -28 42 -73 71 -235 154 -217
110 -298 193 -327 337 -43 212 80 398 298 450 78 19 227 19 319 0z"/>
</g>
</svg>
